<svg id="Layer_1" data-name="Layer 1" xmlns="http://www.w3.org/2000/svg" xmlns:xlink="http://www.w3.org/1999/xlink" viewBox="0 0 1080 1080"><defs><style>.cls-1{fill:url(#linear-gradient);}.cls-2{fill:#fff;}.cls-3{fill:#ccc;stroke:#fff;stroke-miterlimit:10;stroke-width:7px;}</style><linearGradient id="linear-gradient" y1="540" x2="1080" y2="540" gradientUnits="userSpaceOnUse"><stop offset="0" stop-color="#ffc1aa"/><stop offset="1" stop-color="#f4c9c9"/></linearGradient></defs><title>IGLOGO</title><rect class="cls-1" width="1080" height="1080"/><path class="cls-2" d="M711.94,864.09l-74.16-85.91h.43l-65,81.42-.44.55-.36-.61-52.23-90.11,1.11.08-65,81.41-.79,1-.64-1.1-52.22-90.13,1.58.27-86,74L315,837.8l1.44-4.11,37.47-107.12,1,1.71-103-15.63-2-.31,1-1.79,52-90.25,1.1,2.28L201,606.94l-2.39-.36,1.21-2.09,52-90.23.92,2.47L145.71,479.14,139.53,477l6.44-1.21,111.52-21-1.34,2.42-37.88-97-1-2.51H220l104.16,0-1.75,2.56-37.88-97-1-2.61h2.81l104.16,0-1.92,2.32-21-111.54-1.38-7.33L371,149.6l73.91,86.12-3,.05,65.14-81.27,1.76-2.19,1.4,2.43,52,90.23-3.1-.24,65.15-81.27,1.69-2.1,1.35,2.33,52,90.23-2.73-.47,86.15-73.89,5-4.27-2.18,6.19L728,288.57l-1.36-2.26,103,15.8,2.4.37-1.21,2.1-52.19,90.14-1.1-2.29,102.94,15.86,2.05.32-1,1.79L829.2,500.54l-.69-1.87,107,37.75,4.11,1.45-4.28.8L823.81,559.52l.78-1.4,37.69,97.1.46,1.19h-1.27l-104.16-.21.63-.92,37.66,97.11.23.6-.63.06-109.25,9.78.23-.33Zm0,0L685.67,762.63l-.08-.3.31,0,109.21-10.22-.4.65-38-97-.36-.92h1l104.16-.18-.81,1.19-38-97-.46-1.17,1.23-.23,111.51-21.11-.17,2.25-107.12-37.5-1.48-.52.78-1.36,52-90.26,1,2.11L777,395.46l-2.22-.34,1.12-1.95,52-90.26,1.18,2.46-103-15.68-2-.31.68-2,37.55-107.1,2.8,1.92-86.09,74-1.65,1.41-1.09-1.88-52.1-90.19,3,.23L562.09,247.1l-1.72,2.15L559,246.86l-52.1-90.19,3.16.24L445,238.23l-1.48,1.84L442,238.28l-74-86.07,3.48-1.67,20.91,111.55.43,2.32h-2.36l-104.16,0,1.79-2.61,37.81,97.05,1,2.56h-2.75L220,361.3l1.71-2.51,37.81,97.05.79,2-2.13.4L146.62,479.21l.26-3.38,107.06,37.67,2,.69-1,1.79-52.14,90.17-1.18-2.46,102.94,15.86,2.22.34-1.12,1.94L253.37,712l-1-2.11L355.3,725.72l1.55.24-.52,1.47-37.71,107-1.86-1.27L403,759.37l1-.82.62,1.08,51.92,90.3-1.43-.11,65.27-81.17.62-.77.49.86L573.31,859l-.8-.06,65.27-81.17.21-.27.22.26Z"/><path class="cls-3" d="M209.31,579.89l-11,57.64,1.07-.32,2-3.12,34.41-62,28-8.3-36.86,62.12,9.16,101.59-28,8.3L201.61,670l-.21-3.11-.8.24-2.19,3.82-9,14.95a3.23,3.23,0,0,0-.41,1.07L181.5,743.5l-38,44,37-199.07Z"/><path class="cls-3" d="M330.23,544.06l28-8.3L297.2,709.36,268.5,752.5,269.64,562l28-8.3L294.88,640l-.36,6.67h0a3.23,3.23,0,0,0,2.14-2.06l2-5.72Z"/><path class="cls-3" d="M384.1,602.58l-.86-5.81A1,1,0,0,0,382,596h0a1,1,0,0,0-.66.73l-17.44,92.86L331.5,729.5l37.17-196.83,25.63-7.59,11.6,77.6.86,5.81a1,1,0,0,0,1.21.77h0a1,1,0,0,0,.66-.73l17.7-92.94,26.43-7.83L421.58,672.5,396,680.09Z"/><path class="cls-3" d="M506.43,547.71l4.8-25.33c.78-4.46,0-7.41-2-9.14-1.14-.72-3-.79-5.45-.08a16.46,16.46,0,0,0-9.76,8.6,24,24,0,0,0-2,6.31l-18.79,99.08c-1.06,4.34-.3,7.49,2,9.14,1.14.72,2.78.87,5.19.16a15.21,15.21,0,0,0,9.76-8.6,30.35,30.35,0,0,0,2.28-6.39l4.6-24.59a3.23,3.23,0,0,0-4.1-3.7l-1.34.4a3.23,3.23,0,0,1-4.1-3.69l2.81-15.18,40.31-11.94-15.34,82-17.08,5.06-.48-1.55a3.24,3.24,0,0,0-5.35-1.35c-5.78,5.51-10.86,11.6-20.48,12.39s-15.34,2.64-19.58.51a13.65,13.65,0,0,1-7.71-9.14c-1.66-4.37-1.5-9.92.19-17l18.39-97.06a59.49,59.49,0,0,1,7.95-19.07c3.72-5.33,7.7-10.75,13.63-15.68a65.83,65.83,0,0,1,23.4-12.22c9.61-2.85,16.43-2.75,21.18-1a14.7,14.7,0,0,1,9.06,9c2.18,4,2.55,9.4,1.66,16.22l-4.79,25.33Z"/><path class="cls-3" d="M580.28,544.45l-1-6.89-1.6.47L555.5,658.5l-21.81-19.21,31.16-164.74L590.48,467l11.6,77.6.86,5.81a1,1,0,0,0,1.21.77h0a1,1,0,0,0,.66-.73l17.7-92.94,26.43-7.83L617.77,614.38,592.15,622Z"/><path class="cls-3" d="M628.45,611.21l60.79-173.52,35.23-10.44-1.53,156-1.63.48A20,20,0,0,1,695.6,564h0a3.23,3.23,0,0,0-4.15-3.18l-21.87,6.48a3.23,3.23,0,0,0-2.16,2.1L648.5,634.5Zm69.8-125.62v-4l-1.6.47-1.6,4.49L679,535.09a3.23,3.23,0,0,0,4,4.12l11.57-3.43a3.23,3.23,0,0,0,2.31-3Z"/><path class="cls-3" d="M726.5,619.5l38.28-204.19,22.69-6.72c26.69-7.91,39.79-7.56,45.66,2.55,5.07,10.35,2.36,30.4-3.85,62.92-6.22,32.31-11.06,53-20.94,67.77-10.15,14.85-25.34,23.59-52,31.5ZM767.8,542a3.23,3.23,0,0,0,4.26,3.66c6.79-2.45,11.29-5.52,15-12.76,4.07-8.19,7-21.53,8.95-32.27,1-5.17,2-11.16,3.4-17.93,1.17-6.7,2.39-12.77,3.38-18.14,2-10.54,4.4-23.1,2.82-30.25-1.3-7-6.7-6.27-16.57-3.34Z"/><path class="cls-3" d="M861.41,386.68l28.83-8.54L859.07,542.88l-23.75,7c-2.32.69-12.28,55-11.83,52.58Z"/></svg>